<?xml version="1.0" encoding="utf-8"?>
<!-- Generator: Adobe Illustrator 16.0.0, SVG Export Plug-In . SVG Version: 6.00 Build 0)  -->
<!DOCTYPE svg PUBLIC "-//W3C//DTD SVG 1.1//EN" "http://www.w3.org/Graphics/SVG/1.1/DTD/svg11.dtd">
<svg version="1.1" id="Capa_1" xmlns="http://www.w3.org/2000/svg" xmlns:xlink="http://www.w3.org/1999/xlink" x="0px" y="0px"
	 width="172.549px" height="40px" viewBox="23.726 5.5 172.549 40" enable-background="new 23.726 5.5 172.549 40"
	 xml:space="preserve">
<g>
	<g>
		<path fill="#FFFFFF" d="M61.963,28.814l-11.83,6.434c-0.621,0.308-1.293,0.484-1.994,0.484c-0.704,0-1.374-0.179-1.991-0.481
			l-11.839-6.437c-0.197-0.111-0.377-0.271-0.54-0.478c-0.692-0.894-0.692-2.345,0-3.239c0.164-0.212,0.354-0.373,0.553-0.483
			l1.483-0.806c0.14-0.106,0.298-0.172,0.469-0.172c0.505,0,0.914,0.53,0.914,1.184c0,0.53-0.268,0.972-0.641,1.124l-0.464,0.25
			c-0.145,0.102-0.245,0.298-0.245,0.524c0,0.222,0.095,0.416,0.236,0.519l10.555,5.689c0.03,0.015,0.055,0.022,0.09,0.039
			c0.435,0.235,0.913,0.362,1.419,0.362c0.496,0,0.973-0.127,1.409-0.356c0.035-0.019,0.067-0.031,0.104-0.049l10.546-5.685
			c0.142-0.102,0.237-0.297,0.237-0.519c0-0.229-0.102-0.424-0.248-0.524l-0.461-0.251c-0.373-0.151-0.641-0.595-0.641-1.123
			c0-0.654,0.409-1.184,0.914-1.184c0.174,0,0.336,0.067,0.471,0.175l1.484,0.806c0.2,0.11,0.389,0.271,0.552,0.48
			c0.692,0.894,0.692,2.346,0,3.239C62.343,28.545,62.16,28.703,61.963,28.814L61.963,28.814z M61.964,21l-11.846,6.444
			c-0.617,0.303-1.282,0.476-1.979,0.476c-0.698,0-1.36-0.173-1.974-0.471L34.309,21c-0.197-0.11-0.377-0.268-0.54-0.475
			c-0.692-0.895-0.692-2.345,0-3.241c0.163-0.207,0.344-0.363,0.546-0.476l11.851-6.446c0.614-0.298,1.276-0.472,1.974-0.472
			c0.697,0,1.359,0.174,1.976,0.475l1.104,0.599c0.379,0.154,0.654,0.605,0.654,1.142c0,0.664-0.415,1.203-0.931,1.203
			c-0.156,0-0.3-0.057-0.434-0.146l-0.875-0.472c-0.03-0.015-0.056-0.023-0.086-0.041c-0.437-0.231-0.913-0.358-1.409-0.358
			c-0.507,0-0.985,0.129-1.419,0.363c-0.027,0.013-0.05,0.02-0.077,0.032l-10.564,5.694c-0.142,0.104-0.24,0.296-0.24,0.522
			c0,0.223,0.095,0.414,0.233,0.519l10.571,5.694c0.026,0.015,0.05,0.021,0.077,0.035c0.435,0.232,0.913,0.363,1.419,0.363
			c0.496,0,0.973-0.128,1.409-0.358c0.03-0.016,0.059-0.026,0.088-0.042l10.566-5.692c0.138-0.105,0.233-0.296,0.233-0.519
			c0-0.227-0.098-0.418-0.244-0.522l-1.433-0.772c-0.352-0.163-0.606-0.596-0.606-1.108c0-0.654,0.409-1.183,0.916-1.183
			c0.172,0,0.335,0.066,0.474,0.174l2.421,1.317c0.198,0.11,0.379,0.268,0.541,0.475c0.692,0.894,0.692,2.346,0,3.241
			C62.343,20.732,62.163,20.889,61.964,21L61.964,21z M34.322,32.429l1.493-0.812c0.135-0.103,0.29-0.168,0.46-0.168
			c0.505,0,0.914,0.53,0.914,1.185c0,0.535-0.276,0.982-0.654,1.127l-0.451,0.245c-0.145,0.101-0.245,0.294-0.245,0.521
			c0,0.226,0.095,0.417,0.236,0.52l10.568,5.699c0.027,0.012,0.05,0.019,0.077,0.031c0.435,0.233,0.913,0.365,1.419,0.365
			c0.496,0,0.973-0.129,1.409-0.359c0.03-0.016,0.056-0.025,0.086-0.041l10.564-5.696c0.142-0.103,0.237-0.294,0.237-0.519
			c0-0.226-0.102-0.422-0.248-0.522l-0.452-0.244c-0.379-0.147-0.652-0.596-0.652-1.127c0-0.656,0.409-1.185,0.914-1.185
			c0.168,0,0.32,0.063,0.454,0.161l1.501,0.818c0.202,0.11,0.387,0.269,0.552,0.481c0.692,0.894,0.692,2.345,0,3.239
			c-0.16,0.203-0.343,0.361-0.534,0.472L50.12,43.067c-0.618,0.306-1.284,0.476-1.981,0.476c-0.701,0-1.366-0.174-1.979-0.474
			L34.3,36.619c-0.193-0.109-0.373-0.267-0.531-0.47c-0.692-0.895-0.692-2.346,0-3.239C33.933,32.698,34.123,32.54,34.322,32.429
			L34.322,32.429z"/>
		<path fill="#FFFFFF" d="M47.968,22.033c-0.187,0-0.375-0.067-0.542-0.203l-3.963-3.247c-0.475-0.389-0.616-1.199-0.315-1.809
			c0.3-0.614,0.928-0.793,1.403-0.407l3.375,2.765L58.722,8.801c0.45-0.432,1.086-0.308,1.42,0.272
			c0.334,0.582,0.238,1.403-0.211,1.833L48.574,21.777C48.396,21.948,48.182,22.033,47.968,22.033z"/>
	</g>
	<g enable-background="new    ">
		<path fill="#FFFFFF" d="M75.468,21.649h2.235l0.864,2.184h-3.099v5.868c0,0.661,0.148,1.19,0.445,1.588
			c0.296,0.398,0.74,0.598,1.333,0.598c0.39,0,0.813-0.103,1.271-0.306l0.788,2.108c-0.254,0.17-0.606,0.317-1.054,0.444
			c-0.449,0.127-0.86,0.191-1.232,0.191c-1.372,0-2.447-0.355-3.226-1.067c-0.779-0.711-1.169-1.735-1.169-3.073v-6.351h-1.702
			v-2.184h1.702v-3.023l2.845-0.559V21.649z"/>
		<path fill="#FFFFFF" d="M85.857,31.86c1.032,0,2.235-0.566,3.607-1.701v-8.611h2.87v12.319h-1.931l-0.508-1.473
			c-0.711,0.575-1.49,1.032-2.337,1.371c-0.847,0.339-1.643,0.509-2.388,0.509c-2.71,0-4.064-1.601-4.064-4.801v-7.926h2.845v7.747
			C83.952,31.006,84.587,31.86,85.857,31.86z"/>
		<path fill="#FFFFFF" d="M100.006,34.197c-0.729,0-1.626-0.148-2.693-0.444s-1.82-0.605-2.261-0.928l0.635-2.285
			c0.576,0.288,1.261,0.55,2.058,0.787c0.795,0.237,1.541,0.355,2.235,0.355c1.117,0,1.973-0.19,2.565-0.571
			c0.592-0.381,0.889-0.918,0.889-1.612c0-0.44-0.162-0.843-0.483-1.207c-0.322-0.364-0.732-0.689-1.232-0.979
			c-0.5-0.287-1.224-0.668-2.172-1.143c-1.592-0.813-2.79-1.622-3.594-2.426c-0.805-0.804-1.207-1.807-1.207-3.01
			c0-0.864,0.232-1.639,0.699-2.324c0.465-0.686,1.134-1.228,2.006-1.625s1.901-0.597,3.086-0.597c0.796,0,1.604,0.114,2.426,0.343
			c0.821,0.229,1.588,0.521,2.299,0.876l-0.965,2.261c-0.644-0.305-1.24-0.542-1.791-0.711c-0.55-0.17-1.173-0.254-1.867-0.254
			c-0.881,0-1.6,0.169-2.159,0.508c-0.559,0.339-0.838,0.839-0.838,1.499c0,0.475,0.148,0.894,0.445,1.257
			c0.296,0.364,0.686,0.686,1.168,0.965c0.483,0.279,1.241,0.682,2.274,1.207c1.083,0.559,1.952,1.063,2.604,1.511
			c0.652,0.449,1.185,0.991,1.6,1.625s0.623,1.376,0.623,2.224c0,0.913-0.246,1.727-0.737,2.438s-1.215,1.267-2.171,1.664
			C102.491,33.999,101.343,34.197,100.006,34.197z"/>
		<path fill="#FFFFFF" d="M113.773,21.217c1.812,0,3.183,0.602,4.115,1.804c0.931,1.202,1.396,2.735,1.396,4.598v0.838h-8.535
			c0.255,2.201,1.566,3.302,3.938,3.302c0.661,0,1.249-0.089,1.766-0.267c0.516-0.178,1.139-0.453,1.867-0.825l0.863,2.083
			c-1.372,0.948-2.888,1.422-4.547,1.422c-2.235,0-3.941-0.579-5.118-1.739c-1.177-1.16-1.766-2.739-1.766-4.738
			c0-1.286,0.241-2.417,0.724-3.391c0.483-0.974,1.177-1.731,2.083-2.273C111.466,21.488,112.537,21.217,113.773,21.217z
			 M113.696,23.656c-0.813,0-1.47,0.254-1.969,0.762s-0.809,1.22-0.927,2.134h5.741c-0.152-0.948-0.467-1.667-0.94-2.159
			C115.128,23.902,114.492,23.656,113.696,23.656z"/>
		<path fill="#FFFFFF" d="M126.524,24.469c-0.813,0.424-1.558,0.94-2.235,1.55v7.849h-2.845V21.548h1.523l0.94,2.032
			c0.61-0.508,1.309-0.974,2.096-1.397c0.787-0.423,1.477-0.635,2.07-0.635l0.584,2.286
			C128.048,23.833,127.337,24.045,126.524,24.469z"/>
		<path fill="#FFFFFF" d="M141.029,21.548l-4.751,12.319h-2.54l-4.572-11.862l2.77-0.915l3.124,8.662l2.996-8.204H141.029z"/>
		<path fill="#FFFFFF" d="M145.855,17.864c0,0.475-0.166,0.876-0.496,1.207c-0.33,0.331-0.732,0.496-1.206,0.496
			c-0.475,0-0.868-0.165-1.182-0.496c-0.313-0.33-0.47-0.732-0.47-1.207c0-0.457,0.161-0.851,0.482-1.181s0.711-0.495,1.169-0.495
			c0.474,0,0.876,0.165,1.206,0.495S145.855,17.407,145.855,17.864z M145.626,21.548v12.319h-2.87V21.548H145.626z"/>
		<path fill="#FFFFFF" d="M154.11,31.734c0.626,0,1.193-0.068,1.702-0.204c0.508-0.136,1.066-0.347,1.676-0.635l0.839,2.083
			c-0.525,0.373-1.211,0.669-2.058,0.889c-0.848,0.221-1.566,0.33-2.159,0.33c-1.287,0-2.405-0.271-3.354-0.813
			s-1.681-1.3-2.196-2.273c-0.518-0.974-0.775-2.112-0.775-3.417c0-1.286,0.258-2.417,0.775-3.391
			c0.516-0.974,1.257-1.731,2.222-2.273c0.966-0.542,2.092-0.813,3.379-0.813c0.575,0,1.287,0.114,2.134,0.343
			c0.847,0.229,1.532,0.529,2.058,0.902l-0.813,2.032c-0.66-0.288-1.24-0.499-1.739-0.635c-0.5-0.135-1.046-0.203-1.639-0.203
			c-1.016,0-1.842,0.381-2.477,1.143c-0.636,0.762-0.962,1.728-0.978,2.896c0,1.203,0.308,2.177,0.927,2.922
			C152.252,31.361,153.077,31.734,154.11,31.734z"/>
		<path fill="#FFFFFF" d="M163.534,17.864c0,0.475-0.165,0.876-0.495,1.207c-0.33,0.331-0.733,0.496-1.207,0.496
			c-0.475,0-0.868-0.165-1.181-0.496c-0.314-0.33-0.47-0.732-0.47-1.207c0-0.457,0.16-0.851,0.482-1.181
			c0.321-0.33,0.711-0.495,1.168-0.495c0.474,0,0.877,0.165,1.207,0.495S163.534,17.407,163.534,17.864z M163.306,21.548v12.319
			h-2.871V21.548H163.306z"/>
		<path fill="#FFFFFF" d="M171.789,34.197c-1.287,0-2.404-0.271-3.353-0.813c-0.949-0.542-1.681-1.3-2.197-2.273
			s-0.775-2.112-0.775-3.417c0-1.286,0.259-2.417,0.775-3.391s1.257-1.731,2.223-2.273c0.965-0.542,2.091-0.813,3.378-0.813
			s2.409,0.267,3.366,0.8c0.956,0.534,1.693,1.292,2.21,2.274c0.517,0.982,0.774,2.117,0.774,3.403c0,1.287-0.263,2.422-0.787,3.404
			c-0.525,0.982-1.271,1.744-2.235,2.286C174.202,33.927,173.076,34.197,171.789,34.197z M175.244,27.721
			c0-1.202-0.31-2.181-0.928-2.934c-0.617-0.753-1.443-1.131-2.477-1.131c-1.016,0-1.842,0.381-2.477,1.143
			c-0.635,0.762-0.961,1.728-0.978,2.896c0,1.203,0.309,2.177,0.927,2.922s1.444,1.118,2.477,1.118c1.033,0,1.867-0.382,2.502-1.144
			C174.927,29.829,175.244,28.872,175.244,27.721z"/>
	</g>
</g>
</svg>
